<svg version="1.0" xmlns="http://www.w3.org/2000/svg" width="424" height="218.667" viewBox="0 0 318 164"><path d="M32.7 80.7c-16.8 43.9-30.9 80.6-31.3 81.5-.5 1.6.1 1.8 4.8 1.8h5.5l30.8-79.8c17-43.8 31-80.5 31.3-81.5.4-1.5-.3-1.7-5-1.7h-5.5L32.7 80.7zM83.2 6.2C82.1 9.1 68.3 45 52.5 86c-15.8 41-29 75.3-29.2 76.2-.5 1.6.2 1.8 4.9 1.8h5.4l31.2-80.8C82 38.7 96 2 96 1.7c0-.4-2.4-.7-5.4-.7h-5.5l-1.9 5.2zM114 47.8c0 .4 9.2 26.6 20.4 58.2l20.4 57.5h12.5l2.8-7.5c1.5-4.1 9.8-27.5 18.4-52 8.6-24.5 16-44.8 16.4-45.3.4-.4 1.7 2.5 3 6.5l2.2 7.3-15.5 44.9c-8.6 24.7-15.6 45.3-15.6 45.8s2.3.8 5.1.6l5.1-.3 12.9-37.9c7-20.8 13-38 13.2-38.2.2-.2 6.5 16.8 13.9 37.9l13.6 38.2h12.4l3.9-10.5c2.1-5.8 11.4-32 20.7-58.3l16.9-47.8-5 .3-5.1.3-13.5 38.2c-7.4 21.1-13.8 38.3-14.1 38.3-.4 0-4.4-10.9-9-24.3-4.5-13.3-10.5-30.6-13.2-38.5l-5-14.2h-5c-4.4 0-4.9.2-4.3 1.7.3 1 7.6 21.8 16.1 46.2l15.4 44.3-2.2 6.9c-1.2 3.7-2.4 6.6-2.8 6.4-.3-.2-8.9-24-19-52.9L211.5 47l-6.4.2-6.5.3-13.4 38.2c-7.5 21.1-13.8 38.3-14.2 38.3-.3 0-4.3-10.9-8.9-24.3-4.6-13.3-10.6-30.6-13.4-38.5L143.8 47h-5c-4.4 0-4.9.2-4.3 1.7.4 1 7.6 21.8 16.1 46.2l15.4 44.4-2.2 6.8c-1.2 3.7-2.4 6.6-2.8 6.4-.3-.2-8.9-24-19-52.9L123.5 47h-4.7c-2.7 0-4.8.3-4.8.8zM307 47.4c0 .2-9 26.1-20 57.6s-20 57.7-20 58.2 2.3.8 5.1.6l5.1-.3 19.4-56.5c10.7-31.1 19.7-57.3 20-58.3.5-1.5-.2-1.7-4.5-1.7-2.8 0-5.1.2-5.1.4zM56.2 159.5c-.7 1.4-1.2 3-1.2 3.5 0 .6 13.5 1 35 1h35l1-2.6c.6-1.4 1-3 1-3.5s-13.9-.9-34.8-.9H57.3l-1.1 2.5z" fill="#2596be" /></svg>